# xmcd
# 
# Track frame offsets:
#   150
#   17988
#   35080
#   52551
#   66528
#   84484
#   100985
#   118193
#   138310
#   153295
#   168513
#   185639
#   201043
#   215426
# 
# Disc length: 3086 seconds
# 
# Revision: 2
# Processed by: cddbd v1.5.1PL2 Copyright (c) Steve Scherf et al.
# Submitted via: Synapstar 1.0 
# 
DISCID=c60c0c0e
DTITLE=Various Artist - SD092
DYEAR=1900
DGENRE=Country
TTITLE0=Kenny Chesney - Young
TTITLE1=Gary Allan - One, The
TTITLE2=Alan Jackson and George Strait - Designated Drinker
TTITLE3=Andy Griggs - Tonight I Want To Be Your Man
TTITLE4=Kellie Coffey - When You LIe Next To Me
TTITLE5=Tim McGraw - Angel Boy
TTITLE6=Trace Adkins - Help Me Understand
TTITLE7=Willie Nelson and Lee Ann Womack - Mendocino County Line
TTITLE8=Mark Chestnutt - She Was
TTITLE9=Jessica Andrews - Karma
TTITLE10=Mindy McCready - Maybe, Maybe Not
TTITLE11=Creek Nickel - Light House's Tale, The
TTITLE12=Charlie Robison - Right Man For The Job
TTITLE13=Ray Stevens - Osama Yo Mama
EXTD=MediaType: Karaoke CD+G Producer: StarDisc
EXTT0=
EXTT1=
EXTT2=
EXTT3=
EXTT4=
EXTT5=
EXTT6=
EXTT7=
EXTT8=
EXTT9=
EXTT10=
EXTT11=
EXTT12=
EXTT13=
PLAYORDER=
